<svg width="100" height="100" viewBox="0 0 100 100" fill="none" xmlns="http://www.w3.org/2000/svg">
<circle cx="50" cy="50" r="50" fill="url(#paint0_linear_1_261)"/>
<g clip-path="url(#clip0_1_261)">
<path d="M26.2117 39.4543L48.9597 49.7737C49.6238 50.0754 50.3748 50.0754 51.0388 49.7737L73.7869 39.4543C75.4031 38.7209 75.4031 36.2786 73.7869 35.5452L51.0398 25.2249C50.7135 25.0757 50.359 24.9985 50.0003 24.9985C49.6415 24.9985 49.287 25.0757 48.9607 25.2249L26.2117 35.5442C24.5955 36.2776 24.5955 38.7209 26.2117 39.4543ZM73.7879 48.0754L68.115 45.5041L52.3298 52.6594C51.5916 52.9944 50.8074 53.1643 49.9998 53.1643C49.1922 53.1643 48.409 52.9944 47.6697 52.6594L31.8855 45.5041L26.2117 48.0754C24.5955 48.8079 24.5955 51.2493 26.2117 51.9817L48.9597 62.2932C49.6238 62.594 50.3748 62.594 51.0388 62.2932L73.7879 51.9817C75.4041 51.2493 75.4041 48.8079 73.7879 48.0754ZM73.7879 60.5559L68.1365 57.9944L52.3298 65.1594C51.5916 65.4944 50.8074 65.6643 49.9998 65.6643C49.1922 65.6643 48.409 65.4944 47.6697 65.1594L31.864 57.9944L26.2117 60.5559C24.5955 61.2883 24.5955 63.7297 26.2117 64.4622L48.9597 74.7737C49.6238 75.0745 50.3748 75.0745 51.0388 74.7737L73.7879 64.4622C75.4041 63.7297 75.4041 61.2883 73.7879 60.5559Z" fill="white"/>
</g>
<defs>
<linearGradient id="paint0_linear_1_261" x1="117.687" y1="-18.8597" x2="-44.7627" y2="80.0591" gradientUnits="userSpaceOnUse">
<stop stop-color="#0283E9"/>
<stop offset="1" stop-color="#FC01CA"/>
</linearGradient>
<clipPath id="clip0_1_261">
<rect width="50" height="50" fill="white" transform="translate(25 25)"/>
</clipPath>
</defs>
</svg>
