<svg width="100" height="100" viewBox="0 0 100 100" fill="none" xmlns="http://www.w3.org/2000/svg">
<circle cx="50" cy="50" r="50" fill="url(#paint0_linear_1_249)"/>
<g clip-path="url(#clip0_1_249)">
<path d="M61.1111 44.4444C61.1111 36.7708 53.0295 30.5555 43.0556 30.5555C33.0816 30.5555 25 36.7708 25 44.4444C25 47.4219 26.224 50.1649 28.2986 52.4305C27.1354 55.0521 25.217 57.1354 25.191 57.1614C25 57.3611 24.9479 57.6562 25.0608 57.9166C25.1736 58.1771 25.4167 58.3333 25.6944 58.3333C28.8715 58.3333 31.5017 57.2656 33.3941 56.1632C36.1892 57.526 39.4965 58.3333 43.0556 58.3333C53.0295 58.3333 61.1111 52.118 61.1111 44.4444ZM71.7014 63.5416C73.776 61.2847 75 58.533 75 55.5555C75 49.7482 70.3559 44.7743 63.776 42.6996C63.8542 43.2726 63.8889 43.8542 63.8889 44.4444C63.8889 53.6371 54.5399 61.1111 43.0556 61.1111C42.1181 61.1111 41.2066 61.0416 40.3038 60.9462C43.0382 65.9375 49.4618 69.4444 56.9444 69.4444C60.5035 69.4444 63.8108 68.6458 66.6059 67.2743C68.4983 68.3767 71.1285 69.4444 74.3056 69.4444C74.5833 69.4444 74.8351 69.2795 74.9392 69.0278C75.0521 68.776 75 68.4809 74.809 68.2725C74.783 68.2465 72.8646 66.1719 71.7014 63.5416Z" fill="white"/>
</g>
<defs>
<linearGradient id="paint0_linear_1_249" x1="117.687" y1="-18.8597" x2="-44.7627" y2="80.0591" gradientUnits="userSpaceOnUse">
<stop stop-color="#0283E9"/>
<stop offset="1" stop-color="#FC01CA"/>
</linearGradient>
<clipPath id="clip0_1_249">
<rect width="50" height="50" fill="white" transform="translate(25 25)"/>
</clipPath>
</defs>
</svg>
