<svg width="100" height="100" viewBox="0 0 100 100" fill="none" xmlns="http://www.w3.org/2000/svg">
<circle cx="50" cy="50" r="50" fill="url(#paint0_linear_1_270)"/>
<g clip-path="url(#clip0_1_270)">
<path d="M43.0245 50.5749C43.3402 51.9418 41.8407 52.9807 40.6741 52.2515L36.696 49.7656L31.7285 57.7151C30.4313 59.7907 31.9307 62.4985 34.3772 62.4985H39.4541C40.1013 62.4985 40.626 63.0232 40.626 63.6703V67.5766C40.626 68.2238 40.1013 68.7485 39.4541 68.7485H34.3872C27.0304 68.7485 22.5413 60.6383 26.4372 54.4047L31.4003 46.4567L27.4233 43.9715C26.2435 43.2345 26.5477 41.4363 27.8997 41.124L38.6651 38.6387C39.506 38.4446 40.3449 38.9689 40.539 39.8096L43.0245 50.5749ZM52.6496 32.7121L56.6818 39.1649L52.7032 41.6509C51.5264 42.3861 51.8243 44.1854 53.1797 44.4984L63.945 46.9837C64.7919 47.1789 65.6262 46.648 65.819 45.8128L68.3043 35.0475C68.6165 33.6955 67.1334 32.6335 65.9539 33.3709L61.9806 35.8537L57.951 29.4004C54.2868 23.5378 45.7236 23.5243 42.051 29.4004L40.2968 32.2096C39.954 32.7584 40.121 33.4812 40.6699 33.8241L43.9823 35.894C44.5311 36.2369 45.2541 36.07 45.5971 35.5212L47.3511 32.7143C48.5925 30.7279 51.45 30.7928 52.6496 32.7121ZM73.5643 54.4047L70.8773 50.1015C70.5344 49.5524 69.8113 49.3853 69.2622 49.7283L65.9555 51.7947C65.4067 52.1376 65.2397 52.8606 65.5826 53.4095L68.2744 57.7173C69.5691 59.7887 68.0736 62.4986 65.6244 62.4986H56.251V57.8129C56.251 56.4249 54.5672 55.7247 53.5837 56.7081L45.7712 64.5188C45.161 65.1289 45.161 66.1183 45.7712 66.7284L53.5837 74.5399C54.5605 75.5168 56.251 74.8324 56.251 73.4349V68.7485H65.6143C72.9653 68.7485 77.4634 60.6433 73.5643 54.4047Z" fill="white"/>
</g>
<defs>
<linearGradient id="paint0_linear_1_270" x1="117.687" y1="-18.8597" x2="-44.7627" y2="80.0591" gradientUnits="userSpaceOnUse">
<stop stop-color="#0283E9"/>
<stop offset="1" stop-color="#FC01CA"/>
</linearGradient>
<clipPath id="clip0_1_270">
<rect width="50" height="50" fill="white" transform="translate(25 25)"/>
</clipPath>
</defs>
</svg>
